<svg xmlns="http://www.w3.org/2000/svg" xmlns:xlink="http://www.w3.org/1999/xlink" width="750" zoomAndPan="magnify" viewBox="0 0 562.5 562.499982" height="750" preserveAspectRatio="xMidYMid meet" version="1.0"><defs><clipPath id="e53eda1233"><path d="M 113.714844 133.195312 L 264.796875 133.195312 L 264.796875 284.273438 L 113.714844 284.273438 Z M 113.714844 133.195312 " clip-rule="nonzero"/></clipPath><clipPath id="52e5b752ed"><path d="M 297.703125 133.195312 L 448.785156 133.195312 L 448.785156 284.273438 L 297.703125 284.273438 Z M 297.703125 133.195312 " clip-rule="nonzero"/></clipPath><clipPath id="305207467c"><path d="M 217.019531 303.804688 L 348.453125 303.804688 L 348.453125 454.726562 L 217.019531 454.726562 Z M 217.019531 303.804688 " clip-rule="nonzero"/></clipPath></defs><g clip-path="url(#e53eda1233)"><path fill="#1b9df0" d="M 264.796875 208.734375 C 264.796875 209.96875 264.765625 211.207031 264.707031 212.441406 C 264.644531 213.675781 264.554688 214.910156 264.433594 216.136719 C 264.3125 217.367188 264.160156 218.59375 263.980469 219.816406 C 263.796875 221.042969 263.585938 222.257812 263.347656 223.472656 C 263.105469 224.683594 262.832031 225.890625 262.535156 227.089844 C 262.234375 228.289062 261.902344 229.480469 261.542969 230.664062 C 261.1875 231.84375 260.796875 233.019531 260.382812 234.183594 C 259.964844 235.347656 259.519531 236.5 259.046875 237.640625 C 258.574219 238.785156 258.074219 239.914062 257.542969 241.03125 C 257.015625 242.148438 256.460938 243.253906 255.878906 244.34375 C 255.292969 245.433594 254.6875 246.507812 254.050781 247.570312 C 253.414062 248.628906 252.753906 249.675781 252.066406 250.703125 C 251.378906 251.730469 250.667969 252.742188 249.929688 253.734375 C 249.195312 254.726562 248.433594 255.699219 247.652344 256.65625 C 246.867188 257.613281 246.058594 258.546875 245.230469 259.464844 C 244.398438 260.378906 243.546875 261.273438 242.671875 262.148438 C 241.796875 263.023438 240.902344 263.875 239.988281 264.707031 C 239.070312 265.535156 238.136719 266.34375 237.179688 267.128906 C 236.222656 267.910156 235.25 268.671875 234.257812 269.410156 C 233.261719 270.144531 232.253906 270.855469 231.226562 271.542969 C 230.195312 272.230469 229.152344 272.890625 228.09375 273.527344 C 227.03125 274.164062 225.957031 274.773438 224.867188 275.355469 C 223.777344 275.9375 222.671875 276.492188 221.554688 277.023438 C 220.4375 277.550781 219.308594 278.050781 218.164062 278.523438 C 217.023438 278.996094 215.871094 279.441406 214.707031 279.859375 C 213.542969 280.273438 212.367188 280.664062 211.183594 281.023438 C 210.003906 281.378906 208.8125 281.710938 207.613281 282.011719 C 206.414062 282.3125 205.207031 282.582031 203.992188 282.824219 C 202.78125 283.0625 201.5625 283.277344 200.339844 283.457031 C 199.117188 283.636719 197.890625 283.789062 196.660156 283.910156 C 195.429688 284.03125 194.199219 284.121094 192.964844 284.183594 C 191.730469 284.246094 190.492188 284.273438 189.257812 284.273438 C 188.019531 284.273438 186.785156 284.246094 185.550781 284.183594 C 184.316406 284.121094 183.082031 284.03125 181.851562 283.910156 C 180.621094 283.789062 179.394531 283.636719 178.171875 283.457031 C 176.949219 283.277344 175.730469 283.0625 174.519531 282.824219 C 173.308594 282.582031 172.101562 282.3125 170.902344 282.011719 C 169.703125 281.710938 168.511719 281.378906 167.328125 281.023438 C 166.144531 280.664062 164.972656 280.273438 163.808594 279.859375 C 162.644531 279.441406 161.492188 278.996094 160.347656 278.523438 C 159.207031 278.050781 158.078125 277.550781 156.960938 277.023438 C 155.839844 276.492188 154.738281 275.9375 153.648438 275.355469 C 152.558594 274.773438 151.480469 274.164062 150.421875 273.527344 C 149.359375 272.890625 148.316406 272.230469 147.289062 271.542969 C 146.261719 270.855469 145.25 270.144531 144.257812 269.410156 C 143.265625 268.671875 142.289062 267.910156 141.335938 267.128906 C 140.378906 266.34375 139.441406 265.535156 138.527344 264.707031 C 137.609375 263.875 136.714844 263.023438 135.839844 262.148438 C 134.96875 261.273438 134.117188 260.378906 133.285156 259.464844 C 132.453125 258.546875 131.648438 257.613281 130.863281 256.65625 C 130.078125 255.699219 129.320312 254.726562 128.582031 253.734375 C 127.847656 252.742188 127.132812 251.730469 126.449219 250.703125 C 125.761719 249.675781 125.097656 248.628906 124.464844 247.570312 C 123.828125 246.507812 123.21875 245.433594 122.636719 244.34375 C 122.054688 243.253906 121.496094 242.148438 120.96875 241.03125 C 120.441406 239.914062 119.941406 238.785156 119.464844 237.640625 C 118.992188 236.5 118.546875 235.347656 118.132812 234.183594 C 117.714844 233.019531 117.328125 231.84375 116.96875 230.664062 C 116.609375 229.480469 116.28125 228.289062 115.980469 227.089844 C 115.679688 225.890625 115.410156 224.683594 115.167969 223.472656 C 114.925781 222.257812 114.714844 221.042969 114.535156 219.816406 C 114.351562 218.59375 114.203125 217.367188 114.082031 216.136719 C 113.960938 214.910156 113.867188 213.675781 113.808594 212.441406 C 113.746094 211.207031 113.714844 209.96875 113.714844 208.734375 C 113.714844 207.496094 113.746094 206.261719 113.808594 205.027344 C 113.867188 203.792969 113.960938 202.558594 114.082031 201.328125 C 114.203125 200.101562 114.351562 198.875 114.535156 197.648438 C 114.714844 196.425781 114.925781 195.210938 115.167969 193.996094 C 115.410156 192.785156 115.679688 191.578125 115.980469 190.378906 C 116.28125 189.179688 116.609375 187.988281 116.96875 186.804688 C 117.328125 185.621094 117.714844 184.449219 118.132812 183.285156 C 118.546875 182.121094 118.992188 180.96875 119.464844 179.828125 C 119.941406 178.683594 120.441406 177.554688 120.96875 176.4375 C 121.496094 175.320312 122.054688 174.214844 122.636719 173.125 C 123.21875 172.035156 123.828125 170.960938 124.464844 169.898438 C 125.097656 168.839844 125.761719 167.792969 126.449219 166.765625 C 127.132812 165.738281 127.847656 164.726562 128.582031 163.734375 C 129.320312 162.742188 130.078125 161.769531 130.863281 160.8125 C 131.648438 159.855469 132.453125 158.921875 133.285156 158.003906 C 134.117188 157.089844 134.96875 156.191406 135.839844 155.320312 C 136.714844 154.445312 137.609375 153.59375 138.527344 152.761719 C 139.441406 151.933594 140.378906 151.125 141.335938 150.339844 C 142.289062 149.554688 143.265625 148.796875 144.257812 148.058594 C 145.25 147.324219 146.261719 146.613281 147.289062 145.925781 C 148.316406 145.238281 149.359375 144.578125 150.421875 143.941406 C 151.480469 143.304688 152.558594 142.695312 153.648438 142.113281 C 154.738281 141.53125 155.839844 140.976562 156.960938 140.445312 C 158.078125 139.917969 159.207031 139.417969 160.347656 138.945312 C 161.492188 138.472656 162.644531 138.027344 163.808594 137.609375 C 164.972656 137.191406 166.144531 136.804688 167.328125 136.445312 C 168.511719 136.085938 169.703125 135.757812 170.902344 135.457031 C 172.101562 135.15625 173.308594 134.886719 174.519531 134.644531 C 175.730469 134.402344 176.949219 134.191406 178.171875 134.011719 C 179.394531 133.828125 180.621094 133.679688 181.851562 133.558594 C 183.082031 133.4375 184.316406 133.34375 185.550781 133.285156 C 186.785156 133.222656 188.019531 133.195312 189.257812 133.195312 C 190.492188 133.195312 191.730469 133.222656 192.964844 133.285156 C 194.199219 133.34375 195.429688 133.4375 196.660156 133.558594 C 197.890625 133.679688 199.117188 133.828125 200.339844 134.011719 C 201.5625 134.191406 202.78125 134.402344 203.992188 134.644531 C 205.207031 134.886719 206.414062 135.15625 207.613281 135.457031 C 208.8125 135.757812 210.003906 136.085938 211.183594 136.445312 C 212.367188 136.804688 213.542969 137.191406 214.707031 137.609375 C 215.871094 138.027344 217.023438 138.472656 218.164062 138.945312 C 219.308594 139.417969 220.4375 139.917969 221.554688 140.445312 C 222.671875 140.976562 223.777344 141.53125 224.867188 142.113281 C 225.957031 142.695312 227.03125 143.304688 228.09375 143.941406 C 229.152344 144.578125 230.195312 145.238281 231.226562 145.925781 C 232.253906 146.613281 233.261719 147.324219 234.257812 148.058594 C 235.25 148.796875 236.222656 149.554688 237.179688 150.339844 C 238.136719 151.125 239.070312 151.933594 239.988281 152.761719 C 240.902344 153.59375 241.796875 154.445312 242.671875 155.320312 C 243.546875 156.191406 244.398438 157.089844 245.230469 158.003906 C 246.058594 158.921875 246.867188 159.855469 247.652344 160.8125 C 248.433594 161.769531 249.195312 162.742188 249.929688 163.734375 C 250.667969 164.726562 251.378906 165.738281 252.066406 166.765625 C 252.753906 167.792969 253.414062 168.839844 254.050781 169.898438 C 254.6875 170.960938 255.292969 172.035156 255.878906 173.125 C 256.460938 174.214844 257.015625 175.320312 257.542969 176.4375 C 258.074219 177.554688 258.574219 178.683594 259.046875 179.828125 C 259.519531 180.96875 259.964844 182.121094 260.382812 183.285156 C 260.796875 184.449219 261.1875 185.621094 261.542969 186.804688 C 261.902344 187.988281 262.234375 189.179688 262.535156 190.378906 C 262.832031 191.578125 263.105469 192.785156 263.347656 193.996094 C 263.585938 195.210938 263.796875 196.425781 263.980469 197.648438 C 264.160156 198.875 264.3125 200.101562 264.433594 201.328125 C 264.554688 202.558594 264.644531 203.792969 264.707031 205.027344 C 264.765625 206.261719 264.796875 207.496094 264.796875 208.734375 Z M 264.796875 208.734375 " fill-opacity="1" fill-rule="nonzero"/></g><path fill="#ffffff" d="M 175.433594 248.582031 C 208.933594 248.582031 227.253906 220.820312 227.253906 196.761719 C 227.253906 195.96875 227.253906 195.175781 227.214844 194.417969 C 230.765625 191.851562 233.863281 188.640625 236.320312 184.976562 C 233.070312 186.410156 229.558594 187.394531 225.855469 187.847656 C 229.632812 185.582031 232.503906 182.03125 233.863281 177.761719 C 230.351562 179.839844 226.460938 181.351562 222.304688 182.183594 C 218.980469 178.632812 214.261719 176.441406 209.011719 176.441406 C 198.964844 176.441406 190.804688 184.597656 190.804688 194.644531 C 190.804688 196.082031 190.957031 197.480469 191.296875 198.800781 C 176.152344 198.046875 162.742188 190.792969 153.753906 179.765625 C 152.203125 182.445312 151.296875 185.582031 151.296875 188.90625 C 151.296875 195.210938 154.507812 200.800781 159.417969 204.050781 C 156.433594 203.976562 153.640625 203.144531 151.183594 201.785156 C 151.183594 201.859375 151.183594 201.9375 151.183594 202.011719 C 151.183594 210.847656 157.453125 218.175781 165.800781 219.875 C 164.289062 220.292969 162.667969 220.519531 161.003906 220.519531 C 159.832031 220.519531 158.699219 220.40625 157.566406 220.179688 C 159.871094 227.429688 166.59375 232.679688 174.5625 232.832031 C 168.332031 237.703125 160.476562 240.613281 151.941406 240.613281 C 150.46875 240.613281 149.03125 240.535156 147.597656 240.347656 C 155.566406 245.558594 165.160156 248.582031 175.433594 248.582031 " fill-opacity="1" fill-rule="nonzero"/><g clip-path="url(#52e5b752ed)"><path fill="#00bf63" d="M 448.785156 208.734375 C 448.785156 209.96875 448.753906 211.207031 448.691406 212.441406 C 448.632812 213.675781 448.539062 214.910156 448.417969 216.136719 C 448.296875 217.367188 448.148438 218.59375 447.964844 219.816406 C 447.785156 221.042969 447.574219 222.257812 447.332031 223.472656 C 447.089844 224.683594 446.820312 225.890625 446.519531 227.089844 C 446.21875 228.289062 445.890625 229.480469 445.53125 230.664062 C 445.171875 231.84375 444.785156 233.019531 444.367188 234.183594 C 443.953125 235.347656 443.507812 236.5 443.035156 237.640625 C 442.558594 238.785156 442.058594 239.914062 441.53125 241.03125 C 441.003906 242.148438 440.445312 243.253906 439.863281 244.34375 C 439.28125 245.433594 438.671875 246.507812 438.035156 247.570312 C 437.402344 248.628906 436.738281 249.675781 436.050781 250.703125 C 435.367188 251.730469 434.652344 252.742188 433.917969 253.734375 C 433.179688 254.726562 432.421875 255.699219 431.636719 256.65625 C 430.851562 257.613281 430.046875 258.546875 429.214844 259.464844 C 428.382812 260.378906 427.53125 261.273438 426.65625 262.148438 C 425.785156 263.023438 424.890625 263.875 423.972656 264.707031 C 423.058594 265.535156 422.121094 266.34375 421.164062 267.128906 C 420.210938 267.910156 419.234375 268.671875 418.242188 269.410156 C 417.25 270.144531 416.238281 270.855469 415.210938 271.542969 C 414.183594 272.230469 413.140625 272.890625 412.078125 273.527344 C 411.019531 274.164062 409.941406 274.773438 408.851562 275.355469 C 407.761719 275.9375 406.660156 276.492188 405.539062 277.023438 C 404.421875 277.550781 403.292969 278.050781 402.152344 278.523438 C 401.007812 278.996094 399.855469 279.441406 398.691406 279.859375 C 397.527344 280.273438 396.355469 280.664062 395.171875 281.023438 C 393.988281 281.378906 392.796875 281.710938 391.597656 282.011719 C 390.398438 282.3125 389.191406 282.582031 387.980469 282.824219 C 386.769531 283.0625 385.550781 283.277344 384.328125 283.457031 C 383.105469 283.636719 381.878906 283.789062 380.648438 283.910156 C 379.417969 284.03125 378.183594 284.121094 376.949219 284.183594 C 375.714844 284.246094 374.480469 284.273438 373.242188 284.273438 C 372.007812 284.273438 370.769531 284.246094 369.535156 284.183594 C 368.300781 284.121094 367.070312 284.03125 365.839844 283.910156 C 364.609375 283.789062 363.382812 283.636719 362.160156 283.457031 C 360.9375 283.277344 359.71875 283.0625 358.507812 282.824219 C 357.292969 282.582031 356.085938 282.3125 354.886719 282.011719 C 353.6875 281.710938 352.496094 281.378906 351.316406 281.023438 C 350.132812 280.664062 348.957031 280.273438 347.792969 279.859375 C 346.628906 279.441406 345.476562 278.996094 344.335938 278.523438 C 343.191406 278.050781 342.0625 277.550781 340.945312 277.023438 C 339.828125 276.492188 338.722656 275.9375 337.632812 275.355469 C 336.542969 274.773438 335.46875 274.164062 334.40625 273.527344 C 333.347656 272.890625 332.304688 272.230469 331.273438 271.542969 C 330.246094 270.855469 329.238281 270.144531 328.242188 269.410156 C 327.25 268.671875 326.277344 267.910156 325.320312 267.128906 C 324.363281 266.34375 323.429688 265.535156 322.511719 264.707031 C 321.597656 263.875 320.703125 263.023438 319.828125 262.148438 C 318.953125 261.273438 318.101562 260.378906 317.269531 259.464844 C 316.441406 258.546875 315.632812 257.613281 314.847656 256.65625 C 314.066406 255.699219 313.304688 254.726562 312.570312 253.734375 C 311.832031 252.742188 311.121094 251.730469 310.433594 250.703125 C 309.746094 249.675781 309.085938 248.628906 308.449219 247.570312 C 307.8125 246.507812 307.207031 245.433594 306.621094 244.34375 C 306.039062 243.253906 305.484375 242.148438 304.957031 241.03125 C 304.425781 239.914062 303.925781 238.785156 303.453125 237.640625 C 302.980469 236.5 302.535156 235.347656 302.117188 234.183594 C 301.703125 233.019531 301.3125 231.84375 300.957031 230.664062 C 300.597656 229.480469 300.265625 228.289062 299.964844 227.089844 C 299.667969 225.890625 299.394531 224.683594 299.152344 223.472656 C 298.914062 222.257812 298.703125 221.042969 298.519531 219.816406 C 298.339844 218.59375 298.1875 217.367188 298.066406 216.136719 C 297.945312 214.910156 297.855469 213.675781 297.792969 212.441406 C 297.734375 211.207031 297.703125 209.96875 297.703125 208.734375 C 297.703125 207.496094 297.734375 206.261719 297.792969 205.027344 C 297.855469 203.792969 297.945312 202.558594 298.066406 201.328125 C 298.1875 200.101562 298.339844 198.875 298.519531 197.648438 C 298.703125 196.425781 298.914062 195.210938 299.152344 193.996094 C 299.394531 192.785156 299.667969 191.578125 299.964844 190.378906 C 300.265625 189.179688 300.597656 187.988281 300.957031 186.804688 C 301.3125 185.621094 301.703125 184.449219 302.117188 183.285156 C 302.535156 182.121094 302.980469 180.96875 303.453125 179.828125 C 303.925781 178.683594 304.425781 177.554688 304.957031 176.4375 C 305.484375 175.320312 306.039062 174.214844 306.621094 173.125 C 307.207031 172.035156 307.8125 170.960938 308.449219 169.898438 C 309.085938 168.839844 309.746094 167.792969 310.433594 166.765625 C 311.121094 165.738281 311.832031 164.726562 312.570312 163.734375 C 313.304688 162.742188 314.066406 161.769531 314.847656 160.8125 C 315.632812 159.855469 316.441406 158.921875 317.269531 158.003906 C 318.101562 157.089844 318.953125 156.191406 319.828125 155.320312 C 320.703125 154.445312 321.597656 153.59375 322.511719 152.761719 C 323.429688 151.933594 324.363281 151.125 325.320312 150.339844 C 326.277344 149.554688 327.25 148.796875 328.242188 148.058594 C 329.238281 147.324219 330.246094 146.613281 331.273438 145.925781 C 332.304688 145.238281 333.347656 144.578125 334.40625 143.941406 C 335.46875 143.304688 336.542969 142.695312 337.632812 142.113281 C 338.722656 141.53125 339.828125 140.976562 340.945312 140.445312 C 342.0625 139.917969 343.191406 139.417969 344.335938 138.945312 C 345.476562 138.472656 346.628906 138.027344 347.792969 137.609375 C 348.957031 137.191406 350.132812 136.804688 351.316406 136.445312 C 352.496094 136.085938 353.6875 135.757812 354.886719 135.457031 C 356.085938 135.15625 357.292969 134.886719 358.507812 134.644531 C 359.71875 134.402344 360.9375 134.191406 362.160156 134.011719 C 363.382812 133.828125 364.609375 133.679688 365.839844 133.558594 C 367.070312 133.4375 368.300781 133.34375 369.535156 133.285156 C 370.769531 133.222656 372.007812 133.195312 373.242188 133.195312 C 374.480469 133.195312 375.714844 133.222656 376.949219 133.285156 C 378.183594 133.34375 379.417969 133.4375 380.648438 133.558594 C 381.878906 133.679688 383.105469 133.828125 384.328125 134.011719 C 385.550781 134.191406 386.769531 134.402344 387.980469 134.644531 C 389.191406 134.886719 390.398438 135.15625 391.597656 135.457031 C 392.796875 135.757812 393.988281 136.085938 395.171875 136.445312 C 396.355469 136.804688 397.527344 137.191406 398.691406 137.609375 C 399.855469 138.027344 401.007812 138.472656 402.152344 138.945312 C 403.292969 139.417969 404.421875 139.917969 405.539062 140.445312 C 406.660156 140.976562 407.761719 141.53125 408.851562 142.113281 C 409.941406 142.695312 411.019531 143.304688 412.078125 143.941406 C 413.140625 144.578125 414.183594 145.238281 415.210938 145.925781 C 416.238281 146.613281 417.25 147.324219 418.242188 148.058594 C 419.234375 148.796875 420.210938 149.554688 421.164062 150.339844 C 422.121094 151.125 423.058594 151.933594 423.972656 152.761719 C 424.890625 153.59375 425.785156 154.445312 426.65625 155.320312 C 427.53125 156.191406 428.382812 157.089844 429.214844 158.003906 C 430.046875 158.921875 430.851562 159.855469 431.636719 160.8125 C 432.421875 161.769531 433.179688 162.742188 433.917969 163.734375 C 434.652344 164.726562 435.367188 165.738281 436.050781 166.765625 C 436.738281 167.792969 437.402344 168.839844 438.035156 169.898438 C 438.671875 170.960938 439.28125 172.035156 439.863281 173.125 C 440.445312 174.214844 441.003906 175.320312 441.53125 176.4375 C 442.058594 177.554688 442.558594 178.683594 443.035156 179.828125 C 443.507812 180.96875 443.953125 182.121094 444.367188 183.285156 C 444.785156 184.449219 445.171875 185.621094 445.53125 186.804688 C 445.890625 187.988281 446.21875 189.179688 446.519531 190.378906 C 446.820312 191.578125 447.089844 192.785156 447.332031 193.996094 C 447.574219 195.210938 447.785156 196.425781 447.964844 197.648438 C 448.148438 198.875 448.296875 200.101562 448.417969 201.328125 C 448.539062 202.558594 448.632812 203.792969 448.691406 205.027344 C 448.753906 206.261719 448.785156 207.496094 448.785156 208.734375 Z M 448.785156 208.734375 " fill-opacity="1" fill-rule="nonzero"/></g><path fill="#038f4c" d="M 356.609375 252.875 L 343.65625 252.875 C 343.015625 252.875 342.589844 252.394531 342.589844 251.808594 L 342.589844 224.941406 C 342.589844 224.355469 343.015625 223.875 343.65625 223.875 L 356.609375 223.875 C 357.195312 223.875 357.675781 224.355469 357.675781 224.941406 L 357.675781 251.808594 C 357.675781 252.394531 357.195312 252.875 356.609375 252.875 Z M 344.722656 250.742188 L 355.542969 250.742188 L 355.542969 226.007812 L 344.722656 226.007812 Z M 344.722656 250.742188 " fill-opacity="1" fill-rule="evenodd"/><path fill="#038f4c" d="M 376.921875 252.875 L 363.96875 252.875 C 363.378906 252.875 362.902344 252.394531 362.902344 251.808594 L 362.902344 205.535156 C 362.902344 204.949219 363.378906 204.46875 363.96875 204.46875 L 376.921875 204.46875 C 377.507812 204.46875 377.988281 204.949219 377.988281 205.535156 L 377.988281 251.808594 C 377.988281 252.394531 377.507812 252.875 376.921875 252.875 Z M 365.035156 250.742188 L 375.855469 250.742188 L 375.855469 206.601562 L 365.035156 206.601562 Z M 365.035156 250.742188 " fill-opacity="1" fill-rule="evenodd"/><path fill="#038f4c" d="M 397.285156 252.875 L 384.332031 252.875 C 383.746094 252.875 383.265625 252.394531 383.265625 251.808594 L 383.265625 186.078125 C 383.265625 185.492188 383.746094 185.011719 384.332031 185.011719 L 397.285156 185.011719 C 397.871094 185.011719 398.351562 185.492188 398.351562 186.078125 L 398.351562 251.808594 C 398.351562 252.394531 397.871094 252.875 397.285156 252.875 Z M 385.398438 250.742188 L 396.21875 250.742188 L 396.21875 187.144531 L 385.398438 187.144531 Z M 385.398438 250.742188 " fill-opacity="1" fill-rule="evenodd"/><path fill="#038f4c" d="M 417.648438 252.875 L 404.695312 252.875 C 404.109375 252.875 403.628906 252.394531 403.628906 251.808594 L 403.628906 166.671875 C 403.628906 166.085938 404.109375 165.605469 404.695312 165.605469 L 417.648438 165.605469 C 418.238281 165.605469 418.714844 166.085938 418.714844 166.671875 L 418.714844 251.808594 C 418.714844 252.394531 418.238281 252.875 417.648438 252.875 Z M 405.761719 250.742188 L 416.585938 250.742188 L 416.585938 167.738281 L 405.761719 167.738281 Z M 405.761719 250.742188 " fill-opacity="1" fill-rule="evenodd"/><path fill="#038f4c" d="M 338.324219 221.742188 C 338.058594 221.742188 337.792969 221.6875 337.578125 221.476562 C 337.152344 221.050781 337.152344 220.355469 337.578125 219.929688 L 392.648438 164.914062 C 393.019531 164.488281 393.714844 164.488281 394.140625 164.914062 C 394.566406 165.285156 394.566406 165.980469 394.140625 166.40625 L 339.070312 221.476562 C 338.859375 221.6875 338.589844 221.742188 338.324219 221.742188 Z M 338.324219 221.742188 " fill-opacity="1" fill-rule="evenodd"/><path fill="#038f4c" d="M 343.121094 198.660156 C 334.648438 198.660156 327.714844 191.726562 327.714844 183.253906 C 327.714844 174.722656 334.648438 167.84375 343.121094 167.84375 C 351.652344 167.84375 358.53125 174.722656 358.53125 183.253906 C 358.53125 191.726562 351.652344 198.660156 343.121094 198.660156 Z M 343.121094 169.976562 C 335.820312 169.976562 329.847656 175.894531 329.847656 183.253906 C 329.847656 190.554688 335.820312 196.527344 343.121094 196.527344 C 350.480469 196.527344 356.398438 190.554688 356.398438 183.253906 C 356.398438 175.894531 350.480469 169.976562 343.121094 169.976562 Z M 343.121094 169.976562 " fill-opacity="1" fill-rule="evenodd"/><path fill="#038f4c" d="M 343.496094 191.515625 L 339.179688 191.515625 C 338.539062 191.515625 338.113281 191.035156 338.113281 190.449219 C 338.113281 189.863281 338.539062 189.382812 339.179688 189.382812 L 343.496094 189.382812 C 344.933594 189.382812 346.054688 188.261719 346.054688 186.824219 C 346.054688 185.4375 344.933594 184.316406 343.496094 184.316406 L 342.75 184.316406 C 340.191406 184.316406 338.113281 182.1875 338.113281 179.628906 C 338.113281 177.015625 340.191406 174.9375 342.75 174.9375 L 347.121094 174.9375 C 347.707031 174.9375 348.1875 175.414062 348.1875 176 C 348.1875 176.589844 347.707031 177.066406 347.121094 177.066406 L 342.75 177.066406 C 341.363281 177.066406 340.242188 178.242188 340.242188 179.628906 C 340.242188 181.011719 341.363281 182.1875 342.75 182.1875 L 343.496094 182.1875 C 346.109375 182.1875 348.1875 184.265625 348.1875 186.824219 C 348.1875 189.4375 346.109375 191.515625 343.496094 191.515625 Z M 343.496094 191.515625 " fill-opacity="1" fill-rule="evenodd"/><path fill="#038f4c" d="M 342.75 177.066406 C 342.164062 177.066406 341.683594 176.589844 341.683594 176 L 341.683594 172.589844 C 341.683594 172.003906 342.164062 171.523438 342.75 171.523438 C 343.335938 171.523438 343.816406 172.003906 343.816406 172.589844 L 343.816406 176 C 343.816406 176.589844 343.335938 177.066406 342.75 177.066406 Z M 342.75 177.066406 " fill-opacity="1" fill-rule="evenodd"/><path fill="#038f4c" d="M 342.75 194.925781 C 342.164062 194.925781 341.683594 194.445312 341.683594 193.859375 L 341.683594 190.449219 C 341.683594 189.863281 342.164062 189.382812 342.75 189.382812 C 343.335938 189.382812 343.816406 189.863281 343.816406 190.449219 L 343.816406 193.859375 C 343.816406 194.445312 343.335938 194.925781 342.75 194.925781 Z M 342.75 194.925781 " fill-opacity="1" fill-rule="evenodd"/><path fill="#5ce1e6" d="M 344.722656 226.007812 L 355.542969 226.007812 L 355.542969 250.742188 L 344.722656 250.742188 Z M 344.722656 226.007812 " fill-opacity="1" fill-rule="evenodd"/><path fill="#0097b2" d="M 365.035156 206.601562 L 375.855469 206.601562 L 375.855469 250.742188 L 365.035156 250.742188 Z M 365.035156 206.601562 " fill-opacity="1" fill-rule="evenodd"/><path fill="#5ce1e6" d="M 385.398438 187.144531 L 396.21875 187.144531 L 396.21875 250.742188 L 385.398438 250.742188 Z M 385.398438 187.144531 " fill-opacity="1" fill-rule="evenodd"/><path fill="#0097b2" d="M 405.761719 167.738281 L 416.585938 167.738281 L 416.585938 250.742188 L 405.761719 250.742188 Z M 405.761719 167.738281 " fill-opacity="1" fill-rule="evenodd"/><path fill="#73bda8" d="M 343.121094 196.527344 C 350.480469 196.527344 356.398438 190.554688 356.398438 183.253906 C 356.398438 175.894531 350.480469 169.976562 343.121094 169.976562 C 335.820312 169.976562 329.847656 175.894531 329.847656 183.253906 C 329.847656 190.554688 335.820312 196.527344 343.121094 196.527344 Z M 343.496094 182.1875 C 346.109375 182.1875 348.1875 184.265625 348.1875 186.824219 C 348.1875 189.328125 346.269531 191.355469 343.816406 191.515625 L 343.816406 193.859375 C 343.816406 194.445312 343.335938 194.925781 342.75 194.925781 C 342.164062 194.925781 341.683594 194.445312 341.683594 193.859375 L 341.683594 191.515625 L 339.179688 191.515625 C 338.539062 191.515625 338.113281 191.035156 338.113281 190.449219 C 338.113281 189.863281 338.539062 189.382812 339.179688 189.382812 L 343.496094 189.382812 C 344.933594 189.382812 346.054688 188.261719 346.054688 186.824219 C 346.054688 185.4375 344.933594 184.316406 343.496094 184.316406 L 342.75 184.316406 C 340.191406 184.316406 338.113281 182.1875 338.113281 179.628906 C 338.113281 177.386719 339.605469 175.523438 341.683594 175.042969 L 341.683594 172.589844 C 341.683594 172.003906 342.164062 171.523438 342.75 171.523438 C 343.335938 171.523438 343.816406 172.003906 343.816406 172.589844 L 343.816406 174.9375 L 347.121094 174.9375 C 347.707031 174.9375 348.1875 175.414062 348.1875 176 C 348.1875 176.589844 347.707031 177.066406 347.121094 177.066406 L 342.75 177.066406 C 341.363281 177.066406 340.242188 178.242188 340.242188 179.628906 C 340.242188 181.011719 341.363281 182.1875 342.75 182.1875 Z M 343.496094 182.1875 " fill-opacity="1" fill-rule="evenodd"/><path fill="#ffde59" d="M 346.582031 366.285156 L 346.582031 452.816406 L 218.433594 452.816406 L 218.429688 366.285156 L 240.566406 344.152344 L 279.671875 344.152344 C 272.917969 342.742188 267.847656 336.769531 267.847656 329.617188 C 267.847656 321.417969 274.511719 314.769531 282.738281 314.769531 C 290.960938 314.769531 297.628906 321.417969 297.628906 329.617188 C 297.628906 336.769531 292.558594 342.742188 285.804688 344.152344 L 324.449219 344.152344 L 346.582031 366.285156 " fill-opacity="1" fill-rule="nonzero"/><path fill="#ef3044" d="M 301.28125 400.597656 L 285.773438 400.597656 C 284.785156 400.597656 283.980469 401.398438 283.980469 402.382812 C 283.980469 403.367188 284.785156 404.164062 285.773438 404.164062 L 291.738281 404.164062 L 291.738281 420.523438 C 291.738281 421.507812 292.539062 422.304688 293.527344 422.304688 C 294.515625 422.304688 295.316406 421.507812 295.316406 420.523438 L 295.316406 404.164062 L 301.28125 404.164062 C 302.269531 404.164062 303.070312 403.367188 303.070312 402.382812 C 303.070312 401.398438 302.269531 400.597656 301.28125 400.597656 Z M 322.867188 418.738281 L 309.148438 418.738281 L 309.148438 413.234375 L 319.0625 413.234375 C 320.050781 413.234375 320.851562 412.4375 320.851562 411.453125 C 320.851562 410.464844 320.050781 409.667969 319.0625 409.667969 L 309.148438 409.667969 L 309.148438 404.164062 L 322.867188 404.164062 C 323.851562 404.164062 324.65625 403.367188 324.65625 402.382812 C 324.65625 401.398438 323.851562 400.597656 322.867188 400.597656 L 307.359375 400.597656 C 306.367188 400.597656 305.570312 401.398438 305.570312 402.382812 L 305.570312 420.523438 C 305.570312 421.507812 306.367188 422.304688 307.359375 422.304688 L 322.867188 422.304688 C 323.851562 422.304688 324.65625 421.507812 324.65625 420.523438 C 324.65625 419.535156 323.851562 418.738281 322.867188 418.738281 Z M 277.90625 405.542969 C 277.90625 404.785156 277.289062 404.164062 276.53125 404.164062 L 267.355469 404.164062 C 266.597656 404.164062 265.976562 404.785156 265.976562 405.542969 L 265.976562 417.363281 C 265.976562 418.121094 266.597656 418.738281 267.355469 418.738281 L 276.53125 418.738281 C 277.289062 418.738281 277.90625 418.121094 277.90625 417.363281 Z M 281.484375 405.542969 L 281.484375 417.363281 C 281.484375 420.085938 279.261719 422.304688 276.53125 422.304688 L 267.355469 422.304688 C 264.625 422.304688 262.398438 420.085938 262.398438 417.363281 L 262.398438 405.542969 C 262.398438 402.816406 264.625 400.597656 267.355469 400.597656 L 276.53125 400.597656 C 279.261719 400.597656 281.484375 402.816406 281.484375 405.542969 Z M 295.203125 329.617188 C 295.203125 322.75 289.621094 317.183594 282.734375 317.183594 C 275.847656 317.183594 270.265625 322.75 270.265625 329.617188 C 270.265625 336.484375 275.847656 342.054688 282.734375 342.054688 C 289.621094 342.054688 295.203125 336.484375 295.203125 329.617188 Z M 306.296875 353.648438 L 259.175781 353.648438 L 259.175781 305.585938 L 306.296875 305.585938 Z M 259.757812 403.082031 L 252.003906 421.222656 C 251.726562 421.878906 251.078125 422.304688 250.359375 422.304688 C 249.640625 422.304688 248.996094 421.878906 248.710938 421.222656 L 240.957031 403.082031 C 240.570312 402.175781 240.996094 401.128906 241.902344 400.738281 C 242.8125 400.355469 243.863281 400.773438 244.25 401.683594 L 250.359375 415.96875 L 256.46875 401.683594 C 256.851562 400.773438 257.90625 400.355469 258.8125 400.738281 C 259.722656 401.128906 260.144531 402.175781 259.757812 403.082031 " fill-opacity="1" fill-rule="nonzero"/><g clip-path="url(#305207467c)"><path fill="#283544" d="M 275.039062 332.945312 C 274.339844 332.246094 274.339844 331.117188 275.039062 330.421875 C 275.738281 329.722656 276.871094 329.722656 277.570312 330.421875 L 280.332031 333.171875 L 287.898438 325.625 C 288.597656 324.929688 289.730469 324.929688 290.429688 325.625 C 291.128906 326.320312 291.128906 327.453125 290.429688 328.148438 L 281.597656 336.957031 C 281.246094 337.304688 280.789062 337.480469 280.332031 337.480469 C 279.875 337.480469 279.414062 337.304688 279.066406 336.957031 Z M 344.875 451.160156 L 220.597656 451.160156 L 220.597656 368.035156 L 344.875 368.035156 Z M 240.5625 345.734375 L 257.382812 345.734375 L 257.382812 351.867188 L 248.289062 351.867188 C 247.300781 351.867188 246.5 352.667969 246.5 353.652344 C 246.5 354.632812 247.300781 355.433594 248.289062 355.433594 L 317.179688 355.433594 C 318.167969 355.433594 318.96875 354.632812 318.96875 353.652344 C 318.96875 352.667969 318.167969 351.867188 317.179688 351.867188 L 308.082031 351.867188 L 308.082031 345.734375 L 324.902344 345.734375 L 342.53125 364.464844 L 222.9375 364.464844 Z M 260.964844 307.371094 L 304.503906 307.371094 L 304.503906 351.867188 L 260.964844 351.867188 Z M 348.449219 366.230469 C 348.449219 366.121094 348.4375 366.019531 348.417969 365.914062 C 348.410156 365.886719 348.402344 365.859375 348.394531 365.832031 C 348.378906 365.757812 348.355469 365.683594 348.328125 365.613281 C 348.316406 365.578125 348.300781 365.546875 348.289062 365.515625 C 348.253906 365.441406 348.210938 365.363281 348.167969 365.292969 C 348.15625 365.277344 348.148438 365.261719 348.140625 365.246094 C 348.085938 365.167969 348.03125 365.097656 347.964844 365.03125 L 326.984375 342.726562 C 326.644531 342.367188 326.171875 342.164062 325.675781 342.164062 L 308.082031 342.164062 L 308.082031 305.585938 C 308.082031 304.601562 307.28125 303.804688 306.292969 303.804688 L 259.171875 303.804688 C 258.1875 303.804688 257.382812 304.601562 257.382812 305.585938 L 257.382812 342.164062 L 239.789062 342.164062 C 239.292969 342.164062 238.820312 342.367188 238.484375 342.726562 L 217.5 365.03125 C 217.4375 365.097656 217.378906 365.167969 217.328125 365.246094 C 217.316406 365.261719 217.3125 365.277344 217.300781 365.292969 C 217.253906 365.363281 217.214844 365.441406 217.179688 365.515625 C 217.164062 365.546875 217.152344 365.578125 217.140625 365.609375 C 217.113281 365.683594 217.089844 365.757812 217.070312 365.832031 C 217.0625 365.859375 217.054688 365.886719 217.050781 365.914062 C 217.03125 366.019531 217.019531 366.121094 217.019531 366.230469 C 217.019531 366.238281 217.015625 366.242188 217.015625 366.253906 L 217.015625 452.945312 C 217.015625 453.925781 217.816406 454.726562 218.804688 454.726562 L 346.660156 454.726562 C 347.652344 454.726562 348.449219 453.925781 348.449219 452.945312 L 348.449219 366.230469 " fill-opacity="1" fill-rule="nonzero"/></g></svg>